<svg xmlns="http://www.w3.org/2000/svg" xmlns:xlink="http://www.w3.org/1999/xlink" width="1920" zoomAndPan="magnify" viewBox="0 0 1440 809.999993" height="1080" preserveAspectRatio="xMidYMid meet" version="1.2"><defs><clipPath id="5d68d5e22c"><path d="M 0 0 L 1440 0 L 1440 807.328125 L 0 807.328125 Z M 0 0 "/></clipPath><clipPath id="e7d1404cde"><path d="M 747 217 L 1232.433594 217 L 1232.433594 510 L 747 510 Z M 747 217 "/></clipPath><clipPath id="fe0068c517"><path d="M 546 463 L 916 463 L 916 776.867188 L 546 776.867188 Z M 546 463 "/></clipPath><clipPath id="4dcbe952f8"><path d="M 207.933594 278 L 754 278 L 754 482 L 207.933594 482 Z M 207.933594 278 "/></clipPath><clipPath id="e153429944"><path d="M 643 32.867188 L 882 32.867188 L 882 414 L 643 414 Z M 643 32.867188 "/></clipPath></defs><g id="2161e6acc9"><rect x="0" width="1440" y="0" height="809.999993" style="fill:#ffffff;fill-opacity:1;stroke:none;"/><rect x="0" width="1440" y="0" height="809.999993" style="fill:#ffffff;fill-opacity:1;stroke:none;"/><path style=" stroke:none;fill-rule:nonzero;fill:#ddd0bb;fill-opacity:1;" d="M 0 0 L 1439.648438 0 L 1439.648438 810 L 0 810 Z M 0 0 "/><g clip-rule="nonzero" clip-path="url(#5d68d5e22c)"><path style=" stroke:none;fill-rule:nonzero;fill:#a19180;fill-opacity:1;" d="M 0 -2.671875 L 1439.648438 -2.671875 L 1439.648438 807.328125 L 0 807.328125 Z M 0 -2.671875 "/></g><path style="fill-rule:nonzero;fill:#131521;fill-opacity:1;stroke-width:1;stroke-linecap:butt;stroke-linejoin:miter;stroke:#131521;stroke-opacity:1;stroke-miterlimit:4;" d="M 74.500511 284.50011 C 67.999985 272.500438 140.499517 194.499208 171.149179 158.000487 L 156.999689 161.500111 L 144.499711 169.500453 L 131.50034 178.000501 L 106.99978 196.000008 L 76.499768 220.50074 L 44.649543 250.000213 C 35.500717 260.500767 4.000236 288.49944 13.999881 302.999323 C 18.49947 310.999665 38.500442 311.499371 54.000145 308.499453 C 65.00026 307.000336 86.499413 302.543363 107.499173 295.000664 C 123.148526 289.379393 135.999929 284.50011 132.648778 274.499262 C 113.500306 279.499686 87.499882 287.999734 74.500511 284.50011 Z M 74.500511 284.50011 " transform="matrix(2.323129,0,0,2.321678,207.933497,32.869039)"/><path style=" stroke:none;fill-rule:nonzero;fill:#f3fe04;fill-opacity:1;" d="M 834.015625 458.898438 L 760.839844 496.042969 C 782.90625 501.847656 1076.785156 414.785156 1162.738281 359.066406 C 1249.855469 305.667969 1231.707031 276.644531 1220.816406 259.234375 C 1203.394531 231.371094 1054.714844 219.765625 994.3125 242.980469 C 947.851562 268.519531 961.789062 274.324219 974.566406 273.164062 C 989.277344 272.773438 1027.535156 273.164062 1062.84375 277.804688 C 1098.15625 282.449219 1067.492188 303.34375 1037.289062 328.882812 C 1010.574219 355.582031 887.449219 431.035156 834.015625 458.898438 Z M 834.015625 458.898438 "/><g clip-rule="nonzero" clip-path="url(#e7d1404cde)"><path style="fill:none;stroke-width:1;stroke-linecap:butt;stroke-linejoin:miter;stroke:#f3fe04;stroke-opacity:1;stroke-miterlimit:4;" d="M 269.499484 183.500631 L 238.000685 199.499632 C 247.499255 201.999844 374.000572 164.500029 410.999428 140.500686 C 448.49936 117.500754 440.687295 104.999694 435.999383 97.500741 C 428.500069 85.499386 364.50032 80.500645 338.499896 90.49981 C 318.500605 101.50007 324.500056 104.000282 330.000114 103.500576 C 336.332494 103.332325 352.800718 103.500576 367.999439 105.4994 C 383.199842 107.499906 370.000377 116.49966 356.999325 127.49992 C 345.499816 138.999885 292.500182 171.499276 269.499484 183.500631 Z M 269.499484 183.500631 " transform="matrix(2.323129,0,0,2.321678,207.933497,32.869039)"/></g><path style=" stroke:none;fill-rule:nonzero;fill:#ef0100;fill-opacity:1;" d="M 674.882812 576.140625 C 658.15625 566.855469 591.25 505.71875 559.886719 476.308594 C 568.019531 504.167969 614.480469 591.234375 681.851562 658.5625 C 736.445312 709.636719 823.5625 772.324219 853.761719 772.324219 C 873.511719 772.324219 883.964844 754.910156 892.09375 738.660156 C 917.648438 619.09375 887.835938 526.613281 865.378906 511.132812 C 879.316406 637.667969 843.308594 648.113281 829.371094 652.757812 C 772.453125 648.113281 695.789062 587.75 674.882812 576.140625 Z M 674.882812 576.140625 "/><g clip-rule="nonzero" clip-path="url(#fe0068c517)"><path style="fill:none;stroke-width:1;stroke-linecap:butt;stroke-linejoin:miter;stroke:#ef0100;stroke-opacity:1;stroke-miterlimit:4;" d="M 201.000147 233.999529 C 193.800133 230.000199 165.000078 203.667213 151.499631 190.999584 C 155.000432 202.999256 174.999723 240.500753 203.999872 269.500521 C 227.499964 291.499358 264.999896 318.500301 277.999267 318.500301 C 286.500731 318.500301 291.000319 310.999665 294.499438 304.000418 C 305.499553 252.500425 292.666646 212.666966 282.99993 205.999174 C 288.999381 260.500767 273.499678 264.999802 267.500227 267.000309 C 242.999667 264.999802 209.999323 238.999953 201.000147 233.999529 Z M 201.000147 233.999529 " transform="matrix(2.323129,0,0,2.321678,207.933497,32.869039)"/></g><path style=" stroke:none;fill-rule:nonzero;fill:#054fae;fill-opacity:1;" d="M 248.589844 302.183594 C 295.050781 291.734375 557.5625 270.839844 739.929688 345.132812 C 706.246094 342.8125 400.753906 338.167969 355.453125 379.960938 C 343.835938 415.945312 413.53125 447.289062 461.15625 468.183594 C 342.675781 472.828125 259.042969 398.535156 226.519531 364.867188 C 197.480469 335.847656 209.09375 311.0625 248.589844 302.183594 Z M 248.589844 302.183594 "/><g clip-rule="nonzero" clip-path="url(#4dcbe952f8)"><path style="fill:none;stroke-width:1;stroke-linecap:butt;stroke-linejoin:miter;stroke:#054fae;stroke-opacity:1;stroke-miterlimit:4;" d="M 17.500682 115.999954 C 37.499973 111.499236 150.499162 102.499482 228.999827 134.499167 C 214.500593 133.499755 83.000294 131.499249 63.500397 149.500439 C 58.499733 164.999735 88.500351 178.500207 109.000718 187.49996 C 58.00034 189.500466 22.00027 157.500781 8.00043 142.999215 C -4.499547 130.499838 0.499435 119.824302 17.500682 115.999954 Z M 17.500682 115.999954 " transform="matrix(2.323129,0,0,2.321678,207.933497,32.869039)"/></g><path style=" stroke:none;fill-rule:nonzero;fill:#00bcec;fill-opacity:1;" d="M 854.925781 75.820312 C 875.832031 129.21875 880.480469 313.792969 803.816406 400.855469 C 817.753906 270.839844 807.300781 188.421875 779.421875 151.273438 C 737.605469 121.558594 679.527344 213.960938 656.296875 231.371094 C 659.78125 182.617188 691.144531 114.128906 759.675781 64.210938 C 789.414062 38.207031 829.925781 11.972656 854.925781 75.820312 Z M 854.925781 75.820312 "/><g clip-rule="nonzero" clip-path="url(#e153429944)"><path style="fill:none;stroke-width:1;stroke-linecap:butt;stroke-linejoin:miter;stroke:#00bcec;stroke-opacity:1;stroke-miterlimit:4;" d="M 278.500342 18.500098 C 287.499518 41.50003 289.500456 121.000378 256.500113 158.500193 C 262.499564 102.499482 257.999976 67.000173 245.999392 50.999489 C 227.999358 38.200625 202.999403 78.000433 192.999758 85.499386 C 194.49962 64.499961 208.000067 35.000488 237.499609 13.499674 C 250.300568 2.299196 267.738995 -9.000551 278.500342 18.500098 Z M 278.500342 18.500098 " transform="matrix(2.323129,0,0,2.321678,207.933497,32.869039)"/></g><path style=" stroke:none;fill-rule:nonzero;fill:#ef0100;fill-opacity:1;" d="M 636.550781 543.636719 C 612.15625 501.847656 578.472656 424.070312 593.574219 375.316406 C 595.894531 354.421875 615.644531 338.167969 644.683594 332.367188 C 683.011719 334.6875 712.480469 351.398438 716.699219 386.925781 C 721.34375 383.441406 743.414062 369.96875 772.453125 382.28125 C 807.300781 392.730469 824.722656 435.679688 810.785156 464.699219 C 791.992188 503.078125 738.722656 524.699219 693.011719 538.257812 C 673.597656 544.53125 655.542969 549.128906 642.359375 551.765625 Z M 636.550781 543.636719 "/></g></svg>