<svg xmlns="http://www.w3.org/2000/svg" xmlns:xlink="http://www.w3.org/1999/xlink" width="1920" zoomAndPan="magnify" viewBox="0 0 1440 809.999993" height="1080" preserveAspectRatio="xMidYMid meet" version="1.2"><defs/><g id="e005525ecf"><rect x="0" width="1440" y="0" height="809.999993" style="fill:#ffffff;fill-opacity:1;stroke:none;"/><rect x="0" width="1440" y="0" height="809.999993" style="fill:#ffffff;fill-opacity:1;stroke:none;"/><path style=" stroke:none;fill-rule:nonzero;fill:#ddd0bb;fill-opacity:1;" d="M 0 0 L 1439.648438 0 L 1439.648438 810 L 0 810 Z M 0 0 "/><g style="fill:#ff7828;fill-opacity:1;"><g transform="translate(107.619226, 512.970591)"><path style="stroke:none" d="M 103.1875 -214.921875 C 104.3125 -209.742188 111.222656 -207.15625 123.921875 -207.15625 L 144.65625 -116.453125 L 162.796875 -116.453125 L 162.796875 -113.859375 L 147.25 -111.265625 L 147.25 -108.6875 C 152.425781 -108.6875 155.015625 -106.957031 155.015625 -103.5 L 175.75 -103.5 L 175.75 -100.90625 C 175.75 -97.039062 167.113281 -93.585938 149.84375 -90.546875 L 155.015625 -75 L 152.421875 -67.21875 L 155.015625 -51.671875 L 152.421875 -49.078125 L 155.015625 -49.078125 L 152.421875 -46.484375 L 155.015625 -15.390625 L 155.015625 0.15625 L 152.421875 -2.4375 L 149.84375 -2.4375 L 157.609375 36.4375 L 152.421875 36.4375 C 152.421875 31.25 150.695312 28.65625 147.25 28.65625 L 147.25 31.25 L 149.84375 39.015625 L 147.25 39.015625 L 144.65625 36.4375 L 142.0625 36.4375 C 142.0625 41.613281 140.332031 44.203125 136.875 44.203125 L 123.921875 0.15625 L 121.328125 0.15625 L 121.328125 10.515625 L 118.734375 10.515625 L 113.5625 -20.578125 L 121.328125 -15.390625 L 121.328125 -17.984375 C 119.910156 -33.535156 117.320312 -41.3125 113.5625 -41.3125 L 116.15625 -43.90625 L 116.15625 -51.671875 L 110.96875 -51.671875 L 110.96875 -43.90625 L 108.375 -43.90625 L 108.375 -54.265625 L 110.96875 -56.859375 L 108.375 -56.859375 L 105.78125 -54.265625 L 105.78125 -64.625 L 108.375 -64.625 L 110.96875 -62.03125 L 113.5625 -62.03125 L 110.96875 -64.625 L 110.96875 -80.171875 L 53.953125 -67.21875 L 53.953125 -62.03125 L 72.09375 -67.21875 L 82.46875 -64.625 L 95.421875 -67.21875 L 95.421875 -62.03125 C 59.140625 -55.53125 41 -46.894531 41 -36.125 C 36.425781 -17.125 31.242188 -5.03125 25.453125 0.15625 L 25.453125 5.328125 L 17.6875 5.328125 L 15.09375 2.75 L 12.5 2.75 L 12.5 5.328125 L 4.71875 0.15625 L 9.90625 -15.390625 L 7.3125 -15.390625 C 2.132812 -15.390625 -0.453125 -8.484375 -0.453125 5.328125 L -5.640625 0.15625 L -3.046875 -15.390625 L -10.828125 -23.171875 L 33.234375 -129.40625 L 35.828125 -129.40625 C 35.828125 -124.226562 37.550781 -121.640625 41 -121.640625 L 43.59375 -134.59375 L 41 -132 L 38.40625 -132 L 38.40625 -142.375 L 41 -155.328125 L 43.59375 -152.734375 L 46.1875 -152.734375 L 43.59375 -155.328125 L 43.59375 -157.921875 L 48.78125 -168.28125 L 51.375 -168.28125 L 53.953125 -165.6875 L 56.546875 -165.6875 L 56.546875 -168.28125 C 56.546875 -171.738281 53.957031 -173.46875 48.78125 -173.46875 L 61.734375 -209.734375 L 72.09375 -209.734375 L 69.5 -207.15625 L 69.5 -204.5625 C 81.5 -211.46875 92.726562 -214.921875 103.1875 -214.921875 Z M 87.640625 -155.328125 L 66.921875 -100.90625 L 72.09375 -100.90625 C 89.375 -100.90625 98.878906 -106.085938 100.609375 -116.453125 L 90.234375 -155.328125 Z M 64.328125 -139.78125 L 59.140625 -121.640625 L 56.546875 -124.234375 L 53.953125 -124.234375 L 56.546875 -113.859375 L 59.140625 -113.859375 L 66.921875 -137.1875 L 66.921875 -139.78125 Z M 35.828125 -116.453125 L 33.234375 -113.859375 L 33.234375 -108.6875 L 35.828125 -108.6875 L 38.40625 -116.453125 Z M 51.375 -106.09375 L 48.78125 -95.71875 L 51.375 -95.71875 L 53.953125 -98.3125 L 53.953125 -106.09375 Z M 28.046875 -103.5 L 25.453125 -93.140625 L 28.046875 -93.140625 L 33.234375 -103.5 Z M 72.09375 -95.71875 L 72.09375 -93.140625 L 77.28125 -93.140625 C 92.832031 -94.859375 100.609375 -97.445312 100.609375 -100.90625 L 98.015625 -100.90625 Z M 108.375 -38.71875 L 113.5625 -38.71875 L 113.5625 -23.171875 L 110.96875 -23.171875 Z M 144.65625 -20.578125 L 144.65625 -15.390625 L 147.25 -5.03125 L 149.84375 -5.03125 L 149.84375 -10.21875 L 147.25 -20.578125 Z M 118.734375 -12.796875 L 118.734375 -7.625 L 126.515625 -10.21875 L 126.515625 -15.390625 Z M 118.734375 -12.796875 "/></g></g><g style="fill:#ff7828;fill-opacity:1;"><g transform="translate(281.168732, 512.970591)"><path style="stroke:none" d="M 38.265625 -203.796875 L 48.625 -203.796875 L 56.390625 -198.609375 L 74.53125 -201.203125 C 104.507812 -201.203125 132.148438 -183.925781 157.453125 -149.375 L 170.421875 -123.46875 L 167.828125 -120.875 L 170.421875 -107.921875 L 170.421875 -94.96875 C 170.421875 -50.550781 134.140625 -16.863281 61.578125 6.09375 L 35.671875 8.6875 C 35.671875 4.320312 32.210938 1.734375 25.296875 0.921875 L 25.296875 11.28125 L 17.53125 11.28125 L 17.53125 -4.265625 L 14.9375 -6.859375 L 17.53125 -9.453125 L 17.53125 -12.046875 C 7.164062 -19.160156 1.984375 -25.207031 1.984375 -30.1875 C 7.160156 -108.425781 15.796875 -165.429688 27.890625 -201.203125 L 30.484375 -201.203125 L 33.078125 -198.609375 Z M 27.890625 -177.890625 L 14.9375 -102.734375 L 14.9375 -100.140625 L 17.53125 -100.140625 L 30.484375 -172.703125 L 30.484375 -177.890625 Z M 69.359375 -159.75 C 69.359375 -156.289062 65.898438 -154.5625 58.984375 -154.5625 C 52.078125 -123.0625 46.894531 -86.785156 43.4375 -45.734375 C 53.5 -45.734375 79.414062 -54.367188 121.1875 -71.640625 L 121.1875 -74.234375 L 116 -74.234375 C 129.820312 -88.359375 136.734375 -103.039062 136.734375 -118.28125 L 136.734375 -126.0625 C 136.734375 -145.0625 123.773438 -156.289062 97.859375 -159.75 Z M 121.1875 -159.75 L 121.1875 -157.15625 L 131.546875 -151.96875 L 131.546875 -154.5625 L 123.765625 -159.75 Z M 144.5 -123.46875 L 141.90625 -92.375 L 147.09375 -92.375 L 147.09375 -100.140625 L 149.6875 -110.515625 L 147.09375 -123.46875 Z M 162.640625 -102.734375 L 149.6875 -61.28125 L 149.6875 -58.6875 L 152.28125 -58.6875 L 165.234375 -97.546875 L 165.234375 -102.734375 Z M 136.734375 -84.59375 L 131.546875 -74.234375 L 134.140625 -74.234375 L 139.3125 -84.59375 Z M 121.1875 -37.953125 C 125.25 -38.566406 131.289062 -43.75 139.3125 -53.5 L 139.3125 -56.09375 Z M 61.578125 -22.40625 L 61.578125 -19.8125 L 71.953125 -19.8125 L 84.90625 -25 L 84.90625 -27.59375 L 82.3125 -27.59375 Z M 40.84375 -19.8125 L 43.4375 -12.046875 L 48.625 -12.046875 L 53.8125 -17.21875 L 53.8125 -19.8125 L 51.21875 -19.8125 L 43.4375 -17.21875 Z M 12.34375 -4.265625 L 14.9375 -4.265625 L 14.9375 -1.671875 L 9.75 3.5 L 7.171875 3.5 L 7.171875 0.921875 Z M 12.34375 -4.265625 "/></g></g><g style="fill:#ff7828;fill-opacity:1;"><g transform="translate(445.724962, 512.970591)"><path style="stroke:none" d="M 103.1875 -214.921875 C 104.3125 -209.742188 111.222656 -207.15625 123.921875 -207.15625 L 144.65625 -116.453125 L 162.796875 -116.453125 L 162.796875 -113.859375 L 147.25 -111.265625 L 147.25 -108.6875 C 152.425781 -108.6875 155.015625 -106.957031 155.015625 -103.5 L 175.75 -103.5 L 175.75 -100.90625 C 175.75 -97.039062 167.113281 -93.585938 149.84375 -90.546875 L 155.015625 -75 L 152.421875 -67.21875 L 155.015625 -51.671875 L 152.421875 -49.078125 L 155.015625 -49.078125 L 152.421875 -46.484375 L 155.015625 -15.390625 L 155.015625 0.15625 L 152.421875 -2.4375 L 149.84375 -2.4375 L 157.609375 36.4375 L 152.421875 36.4375 C 152.421875 31.25 150.695312 28.65625 147.25 28.65625 L 147.25 31.25 L 149.84375 39.015625 L 147.25 39.015625 L 144.65625 36.4375 L 142.0625 36.4375 C 142.0625 41.613281 140.332031 44.203125 136.875 44.203125 L 123.921875 0.15625 L 121.328125 0.15625 L 121.328125 10.515625 L 118.734375 10.515625 L 113.5625 -20.578125 L 121.328125 -15.390625 L 121.328125 -17.984375 C 119.910156 -33.535156 117.320312 -41.3125 113.5625 -41.3125 L 116.15625 -43.90625 L 116.15625 -51.671875 L 110.96875 -51.671875 L 110.96875 -43.90625 L 108.375 -43.90625 L 108.375 -54.265625 L 110.96875 -56.859375 L 108.375 -56.859375 L 105.78125 -54.265625 L 105.78125 -64.625 L 108.375 -64.625 L 110.96875 -62.03125 L 113.5625 -62.03125 L 110.96875 -64.625 L 110.96875 -80.171875 L 53.953125 -67.21875 L 53.953125 -62.03125 L 72.09375 -67.21875 L 82.46875 -64.625 L 95.421875 -67.21875 L 95.421875 -62.03125 C 59.140625 -55.53125 41 -46.894531 41 -36.125 C 36.425781 -17.125 31.242188 -5.03125 25.453125 0.15625 L 25.453125 5.328125 L 17.6875 5.328125 L 15.09375 2.75 L 12.5 2.75 L 12.5 5.328125 L 4.71875 0.15625 L 9.90625 -15.390625 L 7.3125 -15.390625 C 2.132812 -15.390625 -0.453125 -8.484375 -0.453125 5.328125 L -5.640625 0.15625 L -3.046875 -15.390625 L -10.828125 -23.171875 L 33.234375 -129.40625 L 35.828125 -129.40625 C 35.828125 -124.226562 37.550781 -121.640625 41 -121.640625 L 43.59375 -134.59375 L 41 -132 L 38.40625 -132 L 38.40625 -142.375 L 41 -155.328125 L 43.59375 -152.734375 L 46.1875 -152.734375 L 43.59375 -155.328125 L 43.59375 -157.921875 L 48.78125 -168.28125 L 51.375 -168.28125 L 53.953125 -165.6875 L 56.546875 -165.6875 L 56.546875 -168.28125 C 56.546875 -171.738281 53.957031 -173.46875 48.78125 -173.46875 L 61.734375 -209.734375 L 72.09375 -209.734375 L 69.5 -207.15625 L 69.5 -204.5625 C 81.5 -211.46875 92.726562 -214.921875 103.1875 -214.921875 Z M 87.640625 -155.328125 L 66.921875 -100.90625 L 72.09375 -100.90625 C 89.375 -100.90625 98.878906 -106.085938 100.609375 -116.453125 L 90.234375 -155.328125 Z M 64.328125 -139.78125 L 59.140625 -121.640625 L 56.546875 -124.234375 L 53.953125 -124.234375 L 56.546875 -113.859375 L 59.140625 -113.859375 L 66.921875 -137.1875 L 66.921875 -139.78125 Z M 35.828125 -116.453125 L 33.234375 -113.859375 L 33.234375 -108.6875 L 35.828125 -108.6875 L 38.40625 -116.453125 Z M 51.375 -106.09375 L 48.78125 -95.71875 L 51.375 -95.71875 L 53.953125 -98.3125 L 53.953125 -106.09375 Z M 28.046875 -103.5 L 25.453125 -93.140625 L 28.046875 -93.140625 L 33.234375 -103.5 Z M 72.09375 -95.71875 L 72.09375 -93.140625 L 77.28125 -93.140625 C 92.832031 -94.859375 100.609375 -97.445312 100.609375 -100.90625 L 98.015625 -100.90625 Z M 108.375 -38.71875 L 113.5625 -38.71875 L 113.5625 -23.171875 L 110.96875 -23.171875 Z M 144.65625 -20.578125 L 144.65625 -15.390625 L 147.25 -5.03125 L 149.84375 -5.03125 L 149.84375 -10.21875 L 147.25 -20.578125 Z M 118.734375 -12.796875 L 118.734375 -7.625 L 126.515625 -10.21875 L 126.515625 -15.390625 Z M 118.734375 -12.796875 "/></g></g><g style="fill:#ff7828;fill-opacity:1;"><g transform="translate(619.274488, 512.970591)"><path style="stroke:none" d="M 137.34375 -206.6875 L 142.515625 -206.6875 L 142.0625 -201.515625 L 135.96875 -191.140625 L 133.671875 -193.734375 L 131.09375 -193.734375 Z M 41.3125 -204.09375 L 46.484375 -204.09375 L 53.8125 -198.921875 L 53.953125 -201.515625 C 63.203125 -199.785156 69.757812 -195.460938 73.625 -188.546875 C 79.613281 -188.546875 85.8125 -170.410156 92.21875 -134.140625 L 128.046875 -188.546875 L 130.78125 -191.140625 L 133.375 -191.140625 L 133.21875 -188.546875 L 96.484375 -123.765625 L 101.671875 -123.765625 C 128.804688 -177.316406 144.960938 -204.09375 150.140625 -204.09375 L 157.453125 -198.921875 L 157.609375 -201.515625 C 165.023438 -201.515625 173.816406 -192.875 183.984375 -175.59375 L 183.21875 -167.828125 L 180.46875 -165.234375 L 182.765625 -162.640625 L 181.84375 -152.28125 L 176.65625 -152.28125 L 180.46875 -136.734375 L 175.4375 -108.21875 L 174.6875 -100.453125 L 177.125 -97.859375 L 176.8125 -95.265625 L 171.328125 -90.078125 L 175.90625 -84.90625 L 170.421875 -79.71875 L 174.984375 -74.53125 L 172.25 -71.953125 L 169.65625 -71.953125 L 172.09375 -69.359375 L 165.6875 3.203125 C 160.507812 3.203125 157.71875 5.789062 157.3125 10.96875 C 152.125 10.96875 149.125 15.289062 148.3125 23.9375 L 140.53125 23.9375 L 125.90625 13.5625 L 129.875 -1.984375 L 126.0625 -17.53125 L 143.59375 -128.953125 C 134.945312 -119.910156 125.492188 -100.910156 115.234375 -71.953125 C 114.316406 -61.890625 110.253906 -54.976562 103.046875 -51.21875 L 100.453125 -51.21875 L 100.609375 -53.8125 L 103.5 -56.390625 L 103.796875 -58.984375 L 101.359375 -61.578125 L 107 -66.765625 L 107.609375 -74.53125 L 102.4375 -74.53125 C 101.71875 -65.082031 97.648438 -58.175781 90.234375 -53.8125 L 87.640625 -53.8125 L 75.90625 -66.765625 C 71.332031 -66.765625 68.585938 -74.535156 67.671875 -90.078125 C 58.835938 -108.066406 54.773438 -121.023438 55.484375 -128.953125 L 52.890625 -128.953125 L 47.5625 -97.859375 L 45.734375 -77.125 L 42.53125 -69.359375 L 43.90625 -56.390625 L 39.015625 0.609375 C 35.566406 0.609375 33.585938 3.203125 33.078125 8.390625 L 19.046875 21.34375 L 16.46875 21.34375 L -1.0625 13.5625 L 2.75 0.609375 L 2.59375 -27.890625 L 3.65625 -40.84375 L 6.40625 -43.4375 L 4.109375 -46.03125 L 4.421875 -48.625 C 6.753906 -75.039062 11.832031 -103.546875 19.65625 -134.140625 L 22.25 -134.140625 L 19.8125 -136.734375 L 20.125 -139.3125 L 23.625 -149.6875 L 21.796875 -160.046875 L 22.109375 -162.640625 L 24.6875 -162.640625 L 24.234375 -157.453125 L 26.828125 -157.453125 L 27.59375 -165.234375 L 25.15625 -167.828125 L 34.59375 -185.96875 L 35.203125 -193.734375 L 32.3125 -191.140625 L 29.71875 -191.140625 L 27.4375 -193.734375 L 28.046875 -201.515625 L 30.640625 -201.515625 L 33.078125 -198.921875 L 35.671875 -198.921875 Z M 106.234375 -87.5 L 108.21875 -79.71875 L 110.8125 -79.71875 C 111.519531 -88.96875 122.191406 -112.289062 142.828125 -149.6875 L 146.484375 -162.640625 C 133.578125 -146.585938 120.160156 -121.539062 106.234375 -87.5 Z M 152.421875 -141.90625 L 149.6875 -139.3125 L 143.890625 -74.53125 L 146.484375 -74.53125 L 153.953125 -128.953125 L 151.515625 -131.546875 L 154.109375 -131.546875 L 151.8125 -134.140625 L 151.96875 -136.734375 L 154.859375 -139.3125 L 155.015625 -141.90625 Z M 135.515625 -7.171875 L 133.671875 13.5625 L 136.265625 13.5625 L 140.078125 0.609375 L 138.09375 -7.171875 Z M 135.515625 -7.171875 "/></g></g><g style="fill:#ff7828;fill-opacity:1;"><g transform="translate(794.653153, 512.970591)"><path style="stroke:none" d="M 83.21875 -206.84375 C 87.789062 -203.382812 102.320312 -201.65625 126.8125 -201.65625 L 126.671875 -199.078125 L 108.53125 -199.078125 L 108.375 -196.484375 C 130.019531 -196.484375 143.535156 -191.300781 148.921875 -180.9375 L 148.609375 -175.75 L 135.65625 -175.75 L 135.515625 -173.15625 L 153.5 -170.5625 L 153.34375 -167.96875 L 137.796875 -167.96875 L 137.640625 -165.390625 C 142.828125 -165.390625 145.316406 -163.660156 145.109375 -160.203125 C 114.316406 -160.203125 86.828125 -148.972656 62.640625 -126.515625 L 62.5 -123.921875 C 95.925781 -114.984375 122.394531 -95.117188 141.90625 -64.328125 L 141.75 -61.734375 C 135.457031 -39.378906 117.828125 -18.648438 88.859375 0.453125 L 73.015625 3.046875 L 72.859375 5.640625 L 78.046875 5.640625 C 77.835938 10.316406 61.984375 15.5 30.484375 21.1875 L 30.796875 16 L 43.75 16 L 44.046875 13.40625 C 32.972656 13.40625 22.960938 7.363281 14.015625 -4.71875 C 6.296875 -8.6875 2.4375 -16.257812 2.4375 -27.4375 C 2.4375 -28.457031 2.488281 -29.523438 2.59375 -30.640625 L 10.671875 -35.828125 L 18.140625 -30.640625 L 23.328125 -30.640625 C 72.097656 -38.253906 97.242188 -53.800781 98.765625 -77.28125 C 78.347656 -87.644531 64.835938 -92.828125 58.234375 -92.828125 L 58.078125 -90.234375 L 32.625 -100.609375 L 35.0625 -98.015625 L 34.90625 -92.828125 C 13.363281 -108.679688 2.847656 -120.773438 3.359375 -129.109375 L 23.625 -165.390625 L 37.1875 -175.75 L 36.890625 -170.5625 Z M 47.859375 -136.875 L 47.703125 -134.28125 L 93.4375 -162.796875 L 114.46875 -167.96875 L 114.78125 -173.15625 L 109.59375 -173.15625 C 82.257812 -163 61.679688 -150.90625 47.859375 -136.875 Z M 62.1875 -30.640625 L 64.78125 -30.640625 L 70.265625 -35.828125 L 67.671875 -35.828125 Z M 108.828125 -30.640625 L 97.703125 -17.6875 L 100.296875 -17.6875 L 111.421875 -30.640625 Z M 76.359375 -9.90625 L 76.359375 -7.3125 L 78.953125 -7.3125 L 89.78125 -15.09375 Z M 46.953125 8.234375 L 46.796875 10.828125 L 57.15625 10.828125 L 70.265625 8.234375 L 70.265625 5.640625 L 67.671875 5.640625 Z M 46.953125 8.234375 "/></g></g><g style="fill:#ff7828;fill-opacity:1;"><g transform="translate(935.582979, 512.970591)"><path style="stroke:none" d=""/></g></g><g style="fill:#ff7828;fill-opacity:1;"><g transform="translate(1012.950088, 512.970591)"><path style="stroke:none" d="M 132.3125 -210.046875 C 140.132812 -207.804688 144.25 -204.351562 144.65625 -199.6875 C 120.875 -179.457031 102.429688 -161.316406 89.328125 -145.265625 L 89.171875 -142.671875 C 108.679688 -162.078125 127.785156 -177.625 146.484375 -189.3125 L 148.46875 -178.953125 C 138.195312 -173.160156 127.222656 -163.660156 115.546875 -150.453125 L 115.078125 -142.671875 L 123.15625 -147.859375 L 133.53125 -147.859375 L 140.84375 -140.078125 L 140.390625 -132.3125 L 137.640625 -129.71875 L 137.484375 -127.125 L 139.78125 -124.53125 L 142.375 -124.53125 L 145.71875 -134.90625 L 150.90625 -134.90625 L 153.03125 -127.125 L 149.53125 -114.171875 L 148.3125 -93.4375 L 150.90625 -93.4375 L 163.859375 -96.03125 L 166.453125 -93.4375 L 169.046875 -96.03125 L 173.46875 -83.078125 L 178.640625 -83.078125 L 179.109375 -88.25 L 186.875 -88.25 L 188.546875 -75.296875 L 182.765625 -64.9375 L 184.75 -57.15625 L 164.015625 -57.15625 L 155.9375 -49.390625 L 148.3125 -51.984375 L 147.859375 -46.796875 L 145.265625 -46.796875 L 142.984375 -49.390625 L 140.390625 -49.390625 L 139.171875 -31.25 L 139.78125 -0.15625 C 136.320312 -0.15625 134.390625 3.300781 133.984375 10.21875 L 131.09375 12.796875 L 128.5 12.796875 L 129.40625 -0.15625 L 126.8125 -0.15625 C 125.90625 13.664062 123.722656 20.578125 120.265625 20.578125 C 116.804688 20.578125 114.773438 11.941406 114.171875 -5.328125 L 111.578125 -5.328125 L 110.203125 17.984375 L 107.609375 17.984375 C 104.160156 17.984375 103.046875 8.484375 104.265625 -10.515625 L 96.796875 -18.296875 L 100.296875 -31.25 L 101.515625 -49.390625 L 20.578125 -41.609375 L 3.046875 -49.390625 L 3.203125 -51.984375 C 4.117188 -60.617188 6.097656 -64.9375 9.140625 -64.9375 C 9.453125 -70.113281 7.015625 -72.703125 1.828125 -72.703125 L 5.1875 -85.671875 L 2.59375 -85.671875 C 14.476562 -105.890625 28.550781 -123.160156 44.8125 -137.484375 L 44.65625 -134.90625 L 13.5625 -96.03125 L 13.5625 -93.4375 L 16.15625 -93.4375 C 20.53125 -105.726562 37.296875 -125.59375 66.453125 -153.03125 L 66.3125 -150.453125 L 49.53125 -129.71875 L 52.125 -129.71875 C 72.851562 -154.507812 99.582031 -181.285156 132.3125 -210.046875 Z M 105.9375 -202.265625 L 105.78125 -199.6875 L 89.171875 -184.125 L 89.46875 -186.71875 Z M 78.203125 -173.765625 L 78.046875 -171.171875 L 58.6875 -153.03125 L 58.84375 -155.625 Z M 55.9375 -150.453125 L 55.78125 -147.859375 L 44.8125 -137.484375 L 44.96875 -140.078125 Z M 104.5625 -140.078125 C 104.363281 -135.503906 94.148438 -124.273438 73.921875 -106.390625 L 62.796875 -93.4375 L 65.390625 -93.4375 C 84.703125 -115.894531 99.234375 -127.125 108.984375 -127.125 L 109.4375 -134.90625 Z M 112.1875 -137.484375 L 111.578125 -127.125 L 119.046875 -124.53125 L 119.5 -129.71875 Z M 73.015625 -90.84375 L 72.859375 -88.25 L 80.640625 -88.25 L 106.703125 -90.84375 L 108.53125 -119.34375 C 88.3125 -100.34375 76.472656 -90.84375 73.015625 -90.84375 Z M 110.96875 -116.765625 L 109.90625 -101.21875 L 112.484375 -101.21875 L 113.5625 -116.765625 Z M 110.96875 -116.765625 "/></g></g><g style="fill:#ff7828;fill-opacity:1;"><g transform="translate(1183.298581, 512.970591)"><path style="stroke:none" d="M 56.703125 -203.640625 L 59.296875 -203.640625 L 53.8125 -198.15625 L 51.21875 -198.15625 Z M 89.46875 -203.640625 C 89.164062 -199.984375 95.671875 -197.238281 108.984375 -195.40625 L 109.140625 -198.15625 C 136.367188 -179.25 149.222656 -157.910156 147.703125 -134.140625 L 146.640625 -120.109375 C 140.035156 -102.835938 124.234375 -79.617188 99.234375 -50.453125 L 109.4375 -50.453125 L 109.296875 -47.859375 L 93.890625 -44.96875 L 93.59375 -39.328125 L 96.03125 -39.328125 L 108.828125 -42.21875 L 111.125 -39.328125 L 111.265625 -42.21875 L 113.71875 -39.328125 L 121.1875 -39.328125 L 123.921875 -42.21875 C 134.390625 -39.78125 141.65625 -35.109375 145.71875 -28.203125 L 153.1875 -28.203125 C 149.53125 -7.878906 142.164062 2.28125 131.09375 2.28125 C 100.09375 2.28125 70.316406 7.867188 41.765625 19.046875 L 42.0625 16.15625 L 39.328125 19.046875 C 23.773438 19.046875 10.664062 14.375 0 5.03125 L -7.625 5.03125 L -7.3125 2.28125 C 1.519531 -5.84375 6.191406 -13.257812 6.703125 -19.96875 L 30.640625 -39.328125 L 28.203125 -39.328125 L 1.53125 -17.078125 L -3.5 -17.078125 L -3.203125 -22.71875 C 16.816406 -32.363281 33.738281 -47.195312 47.5625 -67.21875 L 45.265625 -70.109375 L 47.703125 -70.109375 L 50 -67.21875 L 70.71875 -75.609375 L 68.4375 -78.34375 L 68.59375 -81.25 C 80.789062 -81.25 91.914062 -97 101.96875 -128.5 L 96.9375 -128.5 C 96.4375 -121.082031 92.726562 -115.539062 85.8125 -111.875 L 85.96875 -114.46875 C 95.320312 -129.3125 100.25 -140.488281 100.75 -148 C 100.957031 -151.664062 96.179688 -155.378906 86.421875 -159.140625 C 72.703125 -155.378906 61.425781 -149.789062 52.59375 -142.375 L 47.5625 -142.375 L 37.65625 -145.265625 L 27.4375 -142.375 C 19 -142.375 15.085938 -147.046875 15.703125 -156.390625 C 33.890625 -182.398438 49.03125 -195.40625 61.125 -195.40625 Z M 35.671875 -189.765625 L 38.109375 -189.765625 C 21.847656 -172.296875 13.566406 -161.171875 13.265625 -156.390625 L 8.234375 -156.390625 L 8.53125 -161.875 Z M 85.8125 -111.875 L 85.515625 -108.984375 L 77.4375 -100.609375 L 77.578125 -103.34375 Z M 58.984375 -86.734375 L 61.421875 -86.734375 L 61.125 -81.25 L 29.578125 -61.734375 L 24.546875 -61.734375 Z M 58.984375 -86.734375 "/></g></g></g></svg>